HIERARCHY
ROOT ZeroOut_JNT
{
  OFFSET 0 0 0
  CHANNELS 6 Xposition Yposition Zposition Zrotation Xrotation Yrotation
  JOINT SpineFinal_1_JNT
  {
    OFFSET 1.09941 64.002 -42.9966
    CHANNELS 6 Xposition Yposition Zposition Zrotation Xrotation Yrotation
    JOINT l_legIKClavicle_Root_JNT
    {
      OFFSET -2.64853 -0.810668 10.7015
      CHANNELS 6 Xposition Yposition Zposition Zrotation Xrotation Yrotation
      JOINT l_legBlendRoot_JNT
      {
        OFFSET 16.1374 0 0
        CHANNELS 6 Xposition Yposition Zposition Zrotation Xrotation Yrotation
        JOINT l_legBlendMiddle_JNT
        {
          OFFSET 27.0969 0 0
          CHANNELS 6 Xposition Yposition Zposition Zrotation Xrotation Yrotation
          JOINT l_legBlendEnd_JNT
          {
            OFFSET 24.8414 0 0
            CHANNELS 6 Xposition Yposition Zposition Zrotation Xrotation Yrotation
            JOINT l_legBlendTip_JNT
            {
              OFFSET 6.77858 0 0
              CHANNELS 6 Xposition Yposition Zposition Zrotation Xrotation Yrotation
              End Site
              {
                OFFSET 0 0 0
              }
            }
          }
        }
      }
    }
    JOINT SpineFinal_2_JNT
    {
      OFFSET -19.9136 -1.49144 0.993757
      CHANNELS 6 Xposition Yposition Zposition Zrotation Xrotation Yrotation
      JOINT SpineFinal_3_JNT
      {
        OFFSET -19.2001 3.24201 2.0363
        CHANNELS 6 Xposition Yposition Zposition Zrotation Xrotation Yrotation
        JOINT SpineFinal_4_JNT
        {
          OFFSET -19.1272 6.18264 0.824529
          CHANNELS 6 Xposition Yposition Zposition Zrotation Xrotation Yrotation
          JOINT SpineFinal_5_JNT
          {
            OFFSET -18.1852 7.21578 -1.20318
            CHANNELS 6 Xposition Yposition Zposition Zrotation Xrotation Yrotation
            JOINT SpineFinal_6_JNT
            {
              OFFSET -19.144 8.35871 0
              CHANNELS 6 Xposition Yposition Zposition Zrotation Xrotation Yrotation
              JOINT SpineFinal_7_JNT
              {
                OFFSET -16.3943 7.24542 0
                CHANNELS 6 Xposition Yposition Zposition Zrotation Xrotation Yrotation
                JOINT SpineFinal_8_JNT
                {
                  OFFSET -19.3877 2.40349 0
                  CHANNELS 6 Xposition Yposition Zposition Zrotation Xrotation Yrotation
                  JOINT head_JNT
                  {
                    OFFSET -13.796 -11.6756 0
                    CHANNELS 6 Xposition Yposition Zposition Zrotation Xrotation Yrotation
                    JOINT l_hornRoot_JNT
                    {
                      OFFSET -15.825 14.8229 15.3879
                      CHANNELS 6 Xposition Yposition Zposition Zrotation Xrotation Yrotation
                      JOINT l_hornMid_JNT
                      {
                        OFFSET 6.55118 0 0
                        CHANNELS 6 Xposition Yposition Zposition Zrotation Xrotation Yrotation
                        JOINT l_hornEnd_JNT
                        {
                          OFFSET 6.73503 0 0
                          CHANNELS 6 Xposition Yposition Zposition Zrotation Xrotation Yrotation
                          End Site
                          {
                            OFFSET 0 0 0
                          }
                        }
                      }
                    }
                    JOINT headJend_JNT
                    {
                      OFFSET 1.34858 -27.5886 0
                      CHANNELS 6 Xposition Yposition Zposition Zrotation Xrotation Yrotation
                      End Site
                      {
                        OFFSET -0.885571 -8.63314 -0.143146
                      }
                    }
                    JOINT r_hornRoot_JNT
                    {
                      OFFSET -15.825 14.8229 -15.3879
                      CHANNELS 6 Xposition Yposition Zposition Zrotation Xrotation Yrotation
                      JOINT r_hornMid_JNT
                      {
                        OFFSET -2.40814 5.46468 -2.69372
                        CHANNELS 6 Xposition Yposition Zposition Zrotation Xrotation Yrotation
                        JOINT r_hornEnd_JNT
                        {
                          OFFSET -2.40922 6.0083 -1.85921
                          CHANNELS 6 Xposition Yposition Zposition Zrotation Xrotation Yrotation
                          End Site
                          {
                            OFFSET 0 0 0
                          }
                        }
                      }
                    }
                    JOINT m_upLip_JNT
                    {
                      OFFSET 4.72477 -9.87974 0
                      CHANNELS 6 Xposition Yposition Zposition Zrotation Xrotation Yrotation
                      JOINT l_lipUpRoot_JNT
                      {
                        OFFSET 2.68891 -0.690234 4.02874
                        CHANNELS 6 Xposition Yposition Zposition Zrotation Xrotation Yrotation
                        JOINT l_lipUpEnd_JNT
                        {
                          OFFSET 0 0 -14.9226
                          CHANNELS 6 Xposition Yposition Zposition Zrotation Xrotation Yrotation
                          End Site
                          {
                            OFFSET 0 0 0
                          }
                        }
                      }
                      JOINT m_upLipRoot_JNT
                      {
                        OFFSET 0 0 3.94939
                        CHANNELS 6 Xposition Yposition Zposition Zrotation Xrotation Yrotation
                        JOINT m_upLipEnd_JNT
                        {
                          OFFSET 0 0 15.0019
                          CHANNELS 6 Xposition Yposition Zposition Zrotation Xrotation Yrotation
                          End Site
                          {
                            OFFSET 0 0 0
                          }
                        }
                      }
                      JOINT r_lipUpRoot_JNT
                      {
                        OFFSET -2.689 -0.690236 4.02875
                        CHANNELS 6 Xposition Yposition Zposition Zrotation Xrotation Yrotation
                        JOINT r_lipUpEnd_JNT
                        {
                          OFFSET 9.35075e-005 -0.000392738 14.9226
                          CHANNELS 6 Xposition Yposition Zposition Zrotation Xrotation Yrotation
                          End Site
                          {
                            OFFSET 0 0 0
                          }
                        }
                      }
                    }
                    JOINT m_DnLip_JNT
                    {
                      OFFSET 6.0207 -9.81639 0
                      CHANNELS 6 Xposition Yposition Zposition Zrotation Xrotation Yrotation
                      JOINT l_lipDn_JNT
                      {
                        OFFSET 2.71301 -0.162748 3.99146
                        CHANNELS 6 Xposition Yposition Zposition Zrotation Xrotation Yrotation
                        JOINT l_lipEnd_JNT
                        {
                          OFFSET 0 0 -14.9599
                          CHANNELS 6 Xposition Yposition Zposition Zrotation Xrotation Yrotation
                          End Site
                          {
                            OFFSET 0 0 0
                          }
                        }
                      }
                      JOINT m_dnLip_JNT
                      {
                        OFFSET 0 -0.0431035 3.99141
                        CHANNELS 6 Xposition Yposition Zposition Zrotation Xrotation Yrotation
                        JOINT m_dnLipEnd_JNT
                        {
                          OFFSET 0 0 14.9599
                          CHANNELS 6 Xposition Yposition Zposition Zrotation Xrotation Yrotation
                          End Site
                          {
                            OFFSET 0 0 0
                          }
                        }
                      }
                      JOINT r_lipDn_JNT
                      {
                        OFFSET -2.71301 -0.162761 3.99141
                        CHANNELS 6 Xposition Yposition Zposition Zrotation Xrotation Yrotation
                        JOINT r_lipDnEnd_JNT
                        {
                          OFFSET 0 0 14.9599
                          CHANNELS 6 Xposition Yposition Zposition Zrotation Xrotation Yrotation
                          End Site
                          {
                            OFFSET 0 0 0
                          }
                        }
                      }
                    }
                    JOINT l_lid_JNT
                    {
                      OFFSET -7.85698 -6.72885 9.63956
                      CHANNELS 6 Xposition Yposition Zposition Zrotation Xrotation Yrotation
                      End Site
                      {
                        OFFSET 0 0 0
                      }
                    }
                    JOINT r_lid_JNT
                    {
                      OFFSET -7.85684 -6.72882 -9.63956
                      CHANNELS 6 Xposition Yposition Zposition Zrotation Xrotation Yrotation
                      End Site
                      {
                        OFFSET 0 0 0
                      }
                    }
                  }
                }
              }
            }
            JOINT l_FwClavicleRoot_JNT
            {
              OFFSET -3.21476 -4.3187 6.08742
              CHANNELS 6 Xposition Yposition Zposition Zrotation Xrotation Yrotation
              JOINT l_FwLegBlendRoot_JNT
              {
                OFFSET 21.051 0 0
                CHANNELS 6 Xposition Yposition Zposition Zrotation Xrotation Yrotation
                JOINT l_FwLegBlendMiddle_JNT
                {
                  OFFSET 33.1145 0 0
                  CHANNELS 6 Xposition Yposition Zposition Zrotation Xrotation Yrotation
                  JOINT l_FwLegBlendTip_JNT
                  {
                    OFFSET 29.9221 0 0
                    CHANNELS 6 Xposition Yposition Zposition Zrotation Xrotation Yrotation
                    JOINT l_FwLegBlendEnd_JNT
                    {
                      OFFSET 9.62649 0 0
                      CHANNELS 6 Xposition Yposition Zposition Zrotation Xrotation Yrotation
                      End Site
                      {
                        OFFSET 0 0 0
                      }
                    }
                  }
                }
              }
            }
            JOINT r_FwClavicleRoot_JNT
            {
              OFFSET 1.57499 -4.64749 -6.47788
              CHANNELS 6 Xposition Yposition Zposition Zrotation Xrotation Yrotation
              JOINT r_FwLegBlendRoot_JNT
              {
                OFFSET 1.1653 -12.7157 -16.7361
                CHANNELS 6 Xposition Yposition Zposition Zrotation Xrotation Yrotation
                JOINT r_FwLegBlendMiddle_JNT
                {
                  OFFSET 16.2308 -5.97551 28.2387
                  CHANNELS 6 Xposition Yposition Zposition Zrotation Xrotation Yrotation
                  JOINT r_FwLegBlendTip_JNT
                  {
                    OFFSET 26.7017 -9.19239 -9.89204
                    CHANNELS 6 Xposition Yposition Zposition Zrotation Xrotation Yrotation
                    JOINT r_FwLegBlendEnd_JNT
                    {
                      OFFSET 4.44874 -7.74942 3.58114
                      CHANNELS 6 Xposition Yposition Zposition Zrotation Xrotation Yrotation
                      End Site
                      {
                        OFFSET 0 0 0
                      }
                    }
                  }
                }
              }
            }
          }
        }
      }
    }
    JOINT r_legIKClavicle_Root_JNT
    {
      OFFSET -4.94604 1.23737 -11.8565
      CHANNELS 6 Xposition Yposition Zposition Zrotation Xrotation Yrotation
      JOINT r_legBlendRoot_JNT
      {
        OFFSET 13.2848 -5.74129 -7.13912
        CHANNELS 6 Xposition Yposition Zposition Zrotation Xrotation Yrotation
        JOINT r_legBlendMiddle_JNT
        {
          OFFSET 14.815 16.9375 15.0957
          CHANNELS 6 Xposition Yposition Zposition Zrotation Xrotation Yrotation
          JOINT r_legBlendEnd_JNT
          {
            OFFSET 23.6904 -6.58016 -3.54465
            CHANNELS 6 Xposition Yposition Zposition Zrotation Xrotation Yrotation
            JOINT r_legBlendTip_JNT
            {
              OFFSET 1.47758 -6.16068 -2.41079
              CHANNELS 6 Xposition Yposition Zposition Zrotation Xrotation Yrotation
              End Site
              {
                OFFSET 0 0 0
              }
            }
          }
        }
      }
    }
    JOINT tailRoot_JNT
    {
      OFFSET 2.82533 14.5514 0
      CHANNELS 6 Xposition Yposition Zposition Zrotation Xrotation Yrotation
      JOINT tailMid_JNT
      {
        OFFSET 7.87756 0 0
        CHANNELS 6 Xposition Yposition Zposition Zrotation Xrotation Yrotation
        JOINT tailEnd_JNT
        {
          OFFSET 6.52588 0 0
          CHANNELS 6 Xposition Yposition Zposition Zrotation Xrotation Yrotation
          End Site
          {
            OFFSET 0 0 0
          }
        }
      }
    }
    JOINT l_shoulderBkRoot_JNT
    {
      OFFSET -9.30511 7.998 11.2048
      CHANNELS 6 Xposition Yposition Zposition Zrotation Xrotation Yrotation
      JOINT l_shoulderBkMid_JNT
      {
        OFFSET 0 2.004 0
        CHANNELS 6 Xposition Yposition Zposition Zrotation Xrotation Yrotation
        End Site
        {
          OFFSET 0 0 0
        }
      }
    }
    JOINT r_shoulderBkRoot_JNT
    {
      OFFSET -9.30514 7.99801 -11.2048
      CHANNELS 6 Xposition Yposition Zposition Zrotation Xrotation Yrotation
      JOINT r_shoulderBkMid_JNT
      {
        OFFSET 0 -3.9713 0
        CHANNELS 6 Xposition Yposition Zposition Zrotation Xrotation Yrotation
        End Site
        {
          OFFSET 0 0 0
        }
      }
    }
  }
}
MOTION
Frames:	3
Frame Time:	0.0416667
0 0 0 0 0 -0 6.71357e-014 65.2118 -42.9818 3.35402 -1.32789 90.042 -0.323145 -1.55994 9.59625 -26.4062 61.2999 -67.9538 16.1374 -7.22566e-007 1.72872e-006 -31.3881 9.28521 29.6714 27.0969 1.77636e-014 -2.13163e-014 5.2941e-015 2.48481e-015 -55.5654 24.8414 7.10543e-015 1.77636e-014 0.70932 1.05178 -23.6743 6.77858 -3.55271e-015 -1.24345e-014 -4.65902e-018 -7.76503e-019 -6.36111e-015 -19.3378 -2.89543 -0.155813 11.233 2.88069 -0.602597 -18.8224 0.758962 0.00219602 8.29244 0.407676 -0.0695028 -16.4246 1.8755 3.88706e-007 -2.72734 0.000957829 -0.000244612 -17.2368 7.11947 -6.96077e-005 6.50365 -0.00115605 0.000395238 -19.144 8.35871 -2.0782e-014 -13.5753 -1.95155e-015 -1.10504e-014 -16.3943 7.24542 2.60764e-014 -11.3967 3.47742e-015 -1.37596e-014 -19.3877 2.40349 -3.46632e-014 5.33605 6.58955e-015 -1.44593e-014 -13.796 -11.6756 2.83194e-014 3.06326 -9.70628e-020 -0 -15.825 14.8229 15.3879 95.3434 5.46269 -23.8262 6.55118 1.98952e-013 1.77636e-014 -52.467 -6.2798 -4.75673 6.73503 2.84217e-014 -5.15143e-014 -6.36111e-015 7.95139e-016 -2.78299e-015 1.34858 -27.5886 -1.33903e-014 92.7985 1.31718e-014 -1.65354e-014 -15.825 14.8229 -15.3879 -17.1587 3.45231 -7.04388 -2.40814 5.46468 -2.69372 -82.996 14.4421 -23.7934 -2.40922 6.0083 -1.85921 1.32417e-031 -3.18055e-015 2.38542e-015 4.72477 -9.87974 -3.66027e-016 92.7985 3.50417e-015 -90 2.68891 -0.690234 4.02874 180 7.01671e-015 -180 0 0 -14.9226 -0 0 1.94126e-019 -1.73472e-018 -2.84217e-014 3.94939 -7.76503e-019 -1.59028e-015 -3.88251e-019 -8.67362e-019 1.42109e-014 15.0019 0 0 -2.91188e-019 -2.689 -0.690236 4.02875 -7.76503e-019 -1.59028e-015 -3.88251e-019 9.35075e-005 -0.000392738 14.9226 0 0 -2.91188e-019 6.0207 -9.81639 -3.63425e-016 92.7985 3.50417e-015 -90 2.71301 -0.162748 3.99146 180 7.01671e-015 -180 0 1.42109e-014 -14.9599 -0 0 1.94126e-019 -7.80626e-018 -0.0431035 3.99141 -7.76503e-019 -1.59028e-015 -3.88251e-019 8.67362e-019 0 14.9599 0 0 -2.91188e-019 -2.71301 -0.162761 3.99141 -7.76503e-019 -1.59028e-015 -3.88251e-019 0 0 14.9599 0 0 -2.91188e-019 -7.85698 -6.72885 9.63956 34.106 19.9417 85.9622 -7.85684 -6.72882 -9.63956 -145.894 19.9417 85.9622 2.4184 -5.6273 6.72563 17.2481 26.2562 -112.65 21.051 6.90113e-008 9.47651e-008 148.294 -66.9379 -151.866 33.1145 8.3753e-007 -2.8019e-007 83.7838 7.01671e-015 -180 29.9221 -3.90799e-014 1.06581e-014 -18.6738 -2.46462e-015 4.2001e-015 9.62649 1.77636e-014 1.06581e-014 29.859 -1.7467e-015 90 0.0875847 -4.92629 -6.72563 -68.3067 9.37847 -17.9858 1.1653 -12.7157 -16.7361 64.2449 -65.5121 143.869 16.2308 -5.97551 28.2387 150.321 16.5464 120.351 26.7017 -9.19239 -9.89204 24.718 46.4642 37.1703 4.44874 -7.74942 3.58114 29.859 -8.08068e-015 90 -0.323145 -1.55994 -9.59625 -62.7106 -9.24999 4.74057 13.2848 -5.74129 -7.13912 -18.5904 10.2294 48.4429 14.815 16.9375 15.0957 3.72975 -3.79239 -53.926 23.6904 -6.58016 -3.54465 -5.35199 -0.30813 -51.1033 1.47758 -6.16068 -2.41079 3.97569e-016 1.59028e-015 -7.95139e-015 2.82533 14.5514 -4.44089e-016 26.6161 -1.59338e-015 -5.19946e-015 7.87756 0 -3.55271e-015 33.1684 -1.54058e-015 9.72181e-016 6.52588 7.10543e-015 4.44089e-016 2.39314 -2.79541e-016 -3.13707e-016 -9.30511 7.998 11.2048 -6.8505 -4.18474e-016 -90 0 0 0 -3.36226e-016 0 1.61513e-016 -9.30514 7.99801 -11.2048 173.149 4.18474e-016 -90 0 0 0 2.78764e-016 1.59028e-015 -7.45443e-017 
0 0 0 0 0 -0 6.92582e-014 64.8499 -42.9786 3.45536 -2.35088 90.1005 -0.323145 -1.55994 9.59625 -26.4062 61.2999 -67.9538 16.1374 -7.38277e-007 1.73074e-006 -31.5393 9.23022 30.3922 27.0969 0 -2.84217e-014 5.43733e-015 2.23633e-015 -56.4325 24.8414 0 2.13163e-014 0.716646 1.10268 -22.5261 6.77858 -1.06581e-014 -1.42109e-014 -3.23284e-034 5.82377e-018 3.18055e-015 -19.2908 -2.99208 -0.166618 11.858 2.96347 -0.65859 -18.833 0.484326 0.000222477 10.5027 0.418314 -0.088126 -16.6103 1.56599 1.92395e-006 -1.60602 0.00106912 -0.000267336 -17.1331 7.37233 -8.39704e-005 9.64918 -0.00126093 0.000509 -19.144 8.35871 -2.07816e-014 -11.9949 -2.25565e-015 -1.09926e-014 -16.3943 7.24542 2.60764e-014 -10.0697 3.1577e-015 -1.38365e-014 -19.3877 2.40349 -3.46624e-014 5.94426 6.43676e-015 -1.4529e-014 -13.796 -11.6756 2.83202e-014 -12.9143 5.07305e-019 -0 -15.825 14.8229 15.3879 99.3797 3.67029 -24.1442 6.55118 2.13163e-013 3.55271e-015 -52.5035 -6.28545 -4.76613 6.73503 0 -4.61853e-014 6.36111e-015 -2.08724e-015 -7.95139e-016 1.34858 -27.5886 -1.33921e-014 92.7985 1.3173e-014 -1.65353e-014 -15.825 14.8229 -15.3879 -13.4097 2.51239 -5.58316 -2.40814 5.46468 -2.69372 -83.0255 14.4419 -23.8011 -2.40922 6.0083 -1.85921 6.36111e-015 1.59028e-015 -0 4.72477 -9.87974 -3.66027e-016 92.7985 3.50417e-015 -90 2.68891 -0.690234 4.02874 -180 7.01671e-015 180 4.44089e-016 0 -14.9226 -4.85314e-020 0 -1.16779e-019 0 -1.42109e-014 3.94939 2.42657e-020 0 4.86831e-019 -4.33681e-019 0 15.0019 2.42657e-020 0 9.93377e-020 -2.689 -0.690236 4.02875 2.42657e-020 0 4.86831e-019 9.35075e-005 -0.000392738 14.9226 2.42657e-020 0 9.93377e-020 6.0207 -9.81639 -3.66027e-016 92.7985 3.50417e-015 -90 2.71301 -0.162748 3.99146 -180 7.01671e-015 180 0 0 -14.9599 -4.85314e-020 0 -1.16779e-019 -9.54098e-018 -0.0431035 3.99141 2.42657e-020 0 4.86831e-019 -4.33681e-019 0 14.9599 2.42657e-020 0 9.93377e-020 -2.71301 -0.162761 3.99141 2.42657e-020 0 4.86831e-019 4.44089e-016 0 14.9599 2.42657e-020 0 9.93377e-020 -7.85698 -6.72885 9.63956 34.106 19.9417 85.9622 -7.85684 -6.72882 -9.63956 -145.894 19.9417 85.9622 2.83803 -6.13684 6.72563 15.4231 26.2649 -112.658 21.051 1.55016e-007 1.7882e-007 162.51 -62.7463 -138.98 33.1145 8.3753e-007 -2.8019e-007 82.6467 7.01671e-015 -180 29.9221 -1.06581e-014 7.10543e-015 -22.8023 -2.75736e-015 4.01452e-015 9.62649 2.13163e-014 3.55271e-015 29.859 -1.7467e-015 90 -0.100923 -5.07787 -6.72563 -72.9224 9.36801 -17.9806 1.1653 -12.7157 -16.7361 63.2854 -66.0619 144.832 16.2308 -5.97551 28.2387 151.385 17.0893 116.684 26.7017 -9.19239 -9.89204 21.4541 49.1303 41.5715 4.44874 -7.74942 3.58114 29.859 -1.7467e-015 90 -0.323145 -1.55994 -9.59625 -62.7106 -9.24999 4.74057 13.2848 -5.74129 -7.13912 -16.341 10.3227 48.1845 14.815 16.9375 15.0957 1.7333 -1.7637 -54.0103 23.6904 -6.58016 -3.54465 -3.63536 -0.0439847 -51.1313 1.47758 -6.16068 -2.41079 -0 0 1.09332e-015 2.82533 14.5514 -4.08562e-014 28.4007 -2.43511e-015 -4.65902e-015 7.87756 -7.10543e-015 -1.02141e-014 34.3277 -1.15544e-015 9.38015e-016 6.52588 0 -1.15463e-014 2.59257 -4.5969e-016 -6.89534e-016 -9.30511 7.998 11.2048 -6.8505 -4.18474e-016 -90 0 0 0 -6.39838e-016 1.59028e-015 -1.49089e-016 -9.30514 7.99801 -11.2048 173.149 4.18474e-016 -90 0 0 0 -6.70898e-016 -1.59028e-015 8.69683e-017 
0 0 0 0 0 -0 6.89979e-014 64.4632 -42.9758 3.44698 -2.96314 90.1369 -0.323145 -1.55994 9.59625 -26.4062 61.2999 -67.9538 16.1374 -7.49694e-007 1.73155e-006 -31.5088 9.22584 31.8522 27.0969 1.06581e-014 -2.84217e-014 5.78507e-015 2.23633e-015 -58.2454 24.8414 7.10543e-015 2.84217e-014 0.702386 1.12213 -21.4563 6.77858 -3.55271e-015 -1.59872e-014 -3.88251e-019 5.82377e-019 -0 -19.2591 -3.06845 -0.170608 12.3131 2.94815 -0.682943 -18.8529 0.236056 -0.00162106 12.817 0.411124 -0.103908 -16.8542 1.29836 3.55878e-006 -0.826572 0.00117894 -0.000290547 -17.0024 7.68395 -0.00010079 10.5854 -0.00137788 0.0005836 -19.144 8.35871 -2.07815e-014 -10.1137 -2.61459e-015 -1.09126e-014 -16.3943 7.24542 2.60761e-014 -9.01167 2.90175e-015 -1.38926e-014 -19.3877 2.40349 -3.46628e-014 6.22601 6.36434e-015 -1.45606e-014 -13.796 -11.6756 2.83203e-014 -27.9828 -1.81993e-020 -6.06643e-021 -15.825 14.8229 15.3879 106.298 0.548874 -24.3932 6.55118 1.7053e-013 7.10543e-015 -42.7575 -6.99734 -3.63168 6.73503 2.84217e-014 -5.15143e-014 6.36111e-015 -2.78299e-015 5.1684e-015 1.34858 -27.5886 -1.33917e-014 92.7985 1.31729e-014 -1.65353e-014 -15.825 14.8229 -15.3879 -6.28774 1.00963 -2.67814 -2.40814 5.46468 -2.69372 -74.3676 10.5564 -22.9038 -2.40922 6.0083 -1.85921 7.95139e-016 0 -1.78906e-015 4.72477 -9.87974 -3.65376e-016 92.7985 3.50417e-015 -90 2.68891 -0.690234 4.02874 180 7.01671e-015 -180 0 0 -14.9226 -0 0 4.54982e-021 5.42101e-020 -1.42109e-014 3.94939 0 0 -1.06162e-020 1.0842e-019 -1.42109e-014 15.0019 0 0 -1.06162e-020 -2.689 -0.690236 4.02875 0 0 -1.06162e-020 9.35075e-005 -0.000392738 14.9226 0 0 -1.06162e-020 6.0207 -9.81639 -3.65485e-016 92.7985 3.50417e-015 -90 2.71301 -0.162748 3.99146 180 7.01671e-015 -180 0 1.42109e-014 -14.9599 -0 0 4.54982e-021 -9.54098e-018 -0.0431035 3.99141 0 0 -1.06162e-020 5.42101e-020 1.42109e-014 14.9599 0 0 -1.06162e-020 -2.71301 -0.162761 3.99141 0 0 -1.06162e-020 -4.44089e-016 1.42109e-014 14.9599 0 0 -1.06162e-020 -7.85698 -6.72885 9.63956 34.106 19.9417 85.9622 -7.85684 -6.72882 -9.63956 -145.894 19.9417 85.9622 3.31212 -6.55044 6.72563 15.5244 26.2599 -112.654 21.051 2.44306e-007 2.42836e-007 171.507 -58.3202 -131.136 33.1145 8.3753e-007 -2.8019e-007 81.3812 7.01671e-015 -180 29.9221 -3.55271e-014 1.06581e-014 -26.5673 -3.01652e-015 3.82466e-015 9.62649 2.13163e-014 1.06581e-014 29.859 -1.7467e-015 90 -0.109472 -5.24287 -6.72563 -75.1388 9.37146 -17.9827 1.1653 -12.7157 -16.7361 62.1355 -66.7255 145.971 16.2308 -5.97551 28.2387 152.424 17.5663 113.183 26.7017 -9.19239 -9.89204 17.5572 51.7039 46.6287 4.44874 -7.74942 3.58114 29.859 -1.7467e-015 90 -0.323145 -1.55994 -9.59625 -62.7106 -9.24999 4.74057 13.2848 -5.74129 -7.13912 -14.7834 10.3867 47.9223 14.815 16.9375 15.0957 -1.44681 1.47304 -54.0191 23.6904 -6.58016 -3.54465 -0.0951891 0.475449 -51.1409 1.47758 -6.16068 -2.41079 -7.95139e-016 -7.95139e-016 8.44835e-016 2.82533 14.5514 -4.88498e-015 30.2487 -1.52816e-015 -4.72114e-015 7.87756 0 -7.10543e-015 35.5281 -1.68967e-015 1.00635e-015 6.52588 1.42109e-014 8.88178e-016 2.792 2.98177e-016 -5.71506e-016 -9.30511 7.998 11.2048 -6.8505 -4.18474e-016 -90 0 0 0 1.86361e-017 -3.18055e-015 1.49089e-016 -9.30514 7.99801 -11.2048 173.149 4.18474e-016 -90 0 0 0 7.45443e-017 1.59028e-015 1.49089e-016 
